<svg xmlns="http://www.w3.org/2000/svg" version="1.1" xmlns:xlink="http://www.w3.org/1999/xlink" viewBox="0 0 200 200"><rect width="200" height="200" fill="url('#gradient')"></rect><defs><linearGradient id="gradient" gradientTransform="rotate(45 0.5 0.5)"><stop offset="0%" stop-color="#6fcbed"></stop><stop offset="100%" stop-color="#baed6f"></stop></linearGradient></defs><g><g fill="#0023e9" transform="matrix(3.4105378105378104,0,0,3.4105378105378104,37.806537728143006,124.2362450404145)" stroke="#0a42b2" stroke-width="0.65"><path d="M6.74-4.46L6.74-14.22L10.16-14.22L10.16-4.46Q10.16-3.11 9.53-2.04Q8.90-0.98 7.77-0.39Q6.64 0.20 5.25 0.20L5.25 0.20Q2.93 0.20 1.64-0.98Q0.35-2.15 0.35-4.30L0.35-4.30L3.79-4.30Q3.79-3.32 4.13-2.88Q4.46-2.44 5.25-2.44L5.25-2.44Q5.97-2.44 6.35-2.97Q6.74-3.51 6.74-4.46L6.74-4.46ZM20.11 0L17.60-5.02L15.74-5.02L15.74 0L12.31 0L12.31-14.22L17.91-14.22Q20.44-14.22 21.87-13.10Q23.29-11.97 23.29-9.92L23.29-9.92Q23.29-8.44 22.69-7.46Q22.09-6.48 20.81-5.88L20.81-5.88L23.78-0.15L23.78 0L20.11 0ZM15.74-11.57L15.74-7.67L17.91-7.67Q18.89-7.67 19.38-8.18Q19.87-8.69 19.87-9.61Q19.87-10.53 19.38-11.05Q18.88-11.57 17.91-11.57L17.91-11.57L15.74-11.57ZM32.70-3.78L32.70-3.78Q32.70-4.53 32.16-4.95Q31.63-5.37 30.29-5.82Q28.96-6.27 28.11-6.69L28.11-6.69Q25.34-8.05 25.34-10.42L25.34-10.42Q25.34-11.60 26.03-12.50Q26.72-13.41 27.98-13.91Q29.24-14.41 30.81-14.41L30.81-14.41Q32.34-14.41 33.56-13.87Q34.78-13.32 35.45-12.31Q36.12-11.30 36.12-10L36.12-10L32.71-10Q32.71-10.87 32.17-11.35Q31.64-11.83 30.73-11.83L30.73-11.83Q29.81-11.83 29.28-11.42Q28.75-11.02 28.75-10.39L28.75-10.39Q28.75-9.84 29.34-9.40Q29.92-8.96 31.40-8.48Q32.87-8.01 33.82-7.46L33.82-7.46Q36.12-6.13 36.12-3.80L36.12-3.80Q36.12-1.93 34.72-0.87Q33.31 0.20 30.86 0.20L30.86 0.20Q29.13 0.20 27.73-0.42Q26.33-1.04 25.62-2.12Q24.91-3.20 24.91-4.61L24.91-4.61L28.35-4.61Q28.35-3.47 28.94-2.92Q29.53-2.38 30.86-2.38L30.86-2.38Q31.71-2.38 32.20-2.75Q32.70-3.12 32.70-3.78Z"></path></g></g></svg>